<?xml version="1.0" encoding="utf-8"?>
<!-- Generator: Adobe Illustrator 27.9.5, SVG Export Plug-In . SVG Version: 9.03 Build 54986)  -->
<svg version="1.1" id="_x35_" xmlns="http://www.w3.org/2000/svg" xmlns:xlink="http://www.w3.org/1999/xlink" x="0px" y="0px"
	 viewBox="0 0 841.89 595.28" style="enable-background:new 0 0 841.89 595.28;" xml:space="preserve">
<style type="text/css">
	.st0{fill:#FFFFFF;}
	.st1{font-family:'MyriadPro-Regular';}
	.st2{font-size:12px;}
	.st3{display:none;fill:#2A391E;}
	.st4{fill:url(#SVGID_1_);stroke:#706231;stroke-miterlimit:10;}
	.st5{fill:url(#SVGID_00000026871318225928752160000012396723584304398493_);stroke:#706231;stroke-miterlimit:10;}
	.st6{fill:url(#SVGID_00000147902829550075047950000016509453192572894387_);stroke:#706231;stroke-miterlimit:10;}
	.st7{fill:url(#SVGID_00000151518417932859427010000006674500064335649929_);stroke:#706231;stroke-miterlimit:10;}
	.st8{fill:url(#SVGID_00000117655488646607052800000016031426728302805666_);stroke:#706231;stroke-miterlimit:10;}
	.st9{fill:url(#SVGID_00000033334606692410354750000004540221212223094189_);stroke:#706231;stroke-miterlimit:10;}
	.st10{fill:url(#SVGID_00000032644596945046789020000016991512771518490242_);stroke:#706231;stroke-miterlimit:10;}
	.st11{fill:url(#SVGID_00000171707756430746663020000014235366974202172339_);stroke:#706231;stroke-miterlimit:10;}
	.st12{fill:url(#SVGID_00000106846278034301104760000017148145648903760295_);stroke:#706231;stroke-miterlimit:10;}
	.st13{fill:url(#SVGID_00000090995682465533308640000003643445625504623038_);stroke:#706231;stroke-miterlimit:10;}
	
		.st14{fill:url(#Trowel_00000174595316620305862230000002476103374725741970_);stroke:#706231;stroke-width:0.5;stroke-miterlimit:10;}
</style>
<rect class="st3" width="846.53" height="595.28"/>
<g>
	<radialGradient id="SVGID_1_" cx="163.3884" cy="338.5809" r="80.6192" gradientUnits="userSpaceOnUse">
		<stop  offset="0" style="stop-color:#FBEC96"/>
		<stop  offset="1" style="stop-color:#B1903F"/>
	</radialGradient>
	<path class="st4" d="M130.03,374.74c4.07,0,7.53,0.82,10.36,2.46c2.83,1.64,5.02,3.7,6.56,6.19c1.54,2.49,2.46,5.17,2.76,8.05
		c0.3,2.88-0.05,5.57-1.04,8.05c-1,2.48-2.64,4.55-4.92,6.19c-2.29,1.64-5.22,2.46-8.8,2.46c0.5-0.5,1.02-1.77,1.57-3.8
		c0.55-2.04,0.69-4.15,0.45-6.34c-0.25-2.19-1.12-4.15-2.61-5.89c-1.49-1.74-3.98-2.61-7.46-2.61c-3.38,0-6.21,0.97-8.5,2.91
		c-2.29,1.94-3.93,4.32-4.92,7.16c-0.99,2.83-1.39,5.94-1.19,9.32c0.2,3.38,1.07,6.49,2.61,9.32c1.54,2.83,3.75,5.22,6.64,7.16
		c2.88,1.94,6.51,2.91,10.89,2.91c4.47,0,8.32-1.12,11.56-3.35c3.23-2.24,5.89-4.92,7.98-8.05c2.09-3.13,3.63-6.31,4.62-9.54
		c0.99-3.23,1.49-5.89,1.49-7.98V283.78c0-0.5,0-1.04,0-1.64c0-0.6,0.05-1.19,0.15-1.79c-4.67,0.9-9.24,2.51-13.72,4.85
		c-4.47,2.34-8.5,5.37-12.08,9.1c-3.58,3.73-6.46,8.15-8.65,13.27c-2.19,5.12-3.28,10.86-3.28,17.22c0,3.58,0.35,6.78,1.04,9.62
		c0.69,2.83,1.59,5.34,2.68,7.53c1.09,2.19,2.36,4.05,3.8,5.59c1.44,1.54,2.91,2.86,4.4,3.95c3.48,2.59,7.46,4.27,11.93,5.07
		c0,1.79-0.87,3.33-2.61,4.62c-1.74,1.29-3.95,2.11-6.64,2.46c-2.68,0.35-5.54,0.05-8.57-0.89c-3.03-0.94-5.89-2.68-8.57-5.22
		c-2.68-2.53-4.9-6.04-6.64-10.51c-1.74-4.47-2.61-10.14-2.61-17c0-8.35,1.47-15.71,4.4-22.07c2.93-6.36,6.76-11.78,11.48-16.25
		c4.72-4.47,10.09-7.98,16.1-10.51c6.01-2.54,12.1-4.2,18.27-5c0.79-3.68,2.16-7.53,4.1-11.56c1.94-4.03,4.47-7.7,7.6-11.03
		c3.13-3.33,6.86-6.06,11.18-8.2c4.32-2.14,9.27-3.21,14.84-3.21c5.47,0,9.96,0.97,13.49,2.91c3.53,1.94,6.21,4.35,8.05,7.23
		c1.84,2.88,2.83,6.02,2.98,9.39c0.15,3.38-0.42,6.51-1.71,9.39c-1.29,2.88-3.26,5.29-5.89,7.23c-2.63,1.94-5.79,2.91-9.47,2.91
		c-5.07,0-8.72-1.09-10.96-3.28c-2.24-2.19-3.58-4.6-4.03-7.23c-0.45-2.63-0.22-5.04,0.67-7.23c0.89-2.18,2.04-3.28,3.43-3.28
		c0,1.49,0.2,2.78,0.6,3.88c0.4,0.99,1.07,1.86,2.01,2.61c0.94,0.75,2.41,1.12,4.4,1.12c1.79,0,3.36-0.57,4.7-1.72
		c1.34-1.14,2.39-2.53,3.13-4.18c0.75-1.64,1.12-3.45,1.12-5.44c0-1.99-0.45-3.8-1.34-5.44c-0.89-1.64-2.29-3.03-4.18-4.18
		c-1.89-1.14-4.32-1.72-7.31-1.72c-3.58,0-6.59,1.07-9.02,3.21c-2.44,2.14-4.45,4.77-6.04,7.9c-1.59,3.13-2.81,6.49-3.65,10.07
		c-0.85,3.58-1.42,6.86-1.71,9.84c5.27,0.7,9.99,1.99,14.17,3.88c4.18,1.89,7.68,4.25,10.51,7.08c2.83,2.83,4.99,6.09,6.49,9.77
		c1.49,3.68,2.24,7.65,2.24,11.93c0,6.26-1.24,11.58-3.73,15.96c-2.49,4.38-6.36,7.7-11.63,9.99c3.68,0.6,7.33,1.56,10.96,2.91
		c3.63,1.34,6.88,3.28,9.77,5.82c2.88,2.53,5.19,5.82,6.93,9.84c1.74,4.02,2.61,9.02,2.61,14.98c0,6.36-0.82,11.73-2.46,16.1
		c-1.64,4.38-3.83,7.98-6.56,10.81c-2.74,2.83-5.84,5.02-9.32,6.56c-3.48,1.54-7.06,2.68-10.74,3.43
		c-3.68,0.74-7.31,1.17-10.89,1.27c-3.58,0.1-6.81,0.15-9.69,0.15c-0.8,3.58-2.21,7.08-4.25,10.51c-2.04,3.43-4.65,6.46-7.83,9.1
		c-3.18,2.63-6.99,4.75-11.41,6.34c-4.42,1.59-9.47,2.39-15.13,2.39c-7.56,0-13.79-1.49-18.71-4.47c-4.92-2.98-8.6-6.71-11.03-11.18
		c-2.44-4.47-3.68-9.3-3.73-14.46c-0.05-5.17,0.97-9.99,3.06-14.46c2.09-4.47,5.19-8.2,9.32-11.18
		C119.01,376.23,124.06,374.74,130.03,374.74z M175.5,281.1c0,0.5-0.03,0.97-0.07,1.42c-0.05,0.45-0.07,0.87-0.07,1.27v49.95
		c2.58,0,4.94-0.69,7.08-2.09c2.14-1.39,3.95-3.23,5.44-5.52c1.49-2.29,2.63-4.89,3.43-7.83c0.79-2.93,1.19-5.99,1.19-9.17
		c0-2.98-0.3-5.94-0.89-8.87c-0.6-2.93-1.57-5.64-2.91-8.13c-1.34-2.48-3.08-4.7-5.22-6.64C181.34,283.56,178.69,282.09,175.5,281.1
		z M175.36,399.34c5.07-0.3,9.59-1.59,13.57-3.88c1.69-0.99,3.35-2.24,4.99-3.73c1.64-1.49,3.08-3.36,4.32-5.59
		c1.24-2.23,2.26-4.85,3.06-7.83c0.79-2.98,1.19-6.41,1.19-10.29c0-3.97-0.4-7.43-1.19-10.36c-0.8-2.93-1.82-5.47-3.06-7.6
		c-1.24-2.14-2.68-3.93-4.32-5.37c-1.64-1.44-3.31-2.61-4.99-3.5c-3.98-2.09-8.5-3.13-13.57-3.13V399.34z"/>
	
		<radialGradient id="SVGID_00000003089466854183667530000008755441949720041878_" cx="257.2911" cy="360.4998" r="32.7183" gradientUnits="userSpaceOnUse">
		<stop  offset="0" style="stop-color:#FBEC96"/>
		<stop  offset="1" style="stop-color:#B1903F"/>
	</radialGradient>
	<path style="fill:url(#SVGID_00000003089466854183667530000008755441949720041878_);stroke:#706231;stroke-miterlimit:10;" d="
		M269.29,340.15c0-2.19,0.75-4.03,2.24-5.52c1.49-1.49,3.33-2.24,5.52-2.24c-0.4-0.79-1.1-1.49-2.09-2.09c-1-0.6-2.49-0.9-4.47-0.9
		c-3.88,0-7.01,1.04-9.39,3.13c-2.39,2.09-4.2,4.57-5.44,7.46c-1.24,2.88-2.09,5.82-2.53,8.8c-0.45,2.98-0.67,5.42-0.67,7.31v33.1
		c0,1.1,0.37,2.19,1.12,3.28c0.75,1.1,1.81,1.79,3.21,2.09c0.79,0.2,1.19,0.65,1.19,1.34v0.3c0,0.99-0.5,1.49-1.49,1.49h-25.2
		c-0.99,0-1.49-0.5-1.49-1.49v-0.3c0-0.69,0.4-1.14,1.19-1.34c1.39-0.3,2.43-0.99,3.13-2.09c0.69-1.09,1.04-2.19,1.04-3.28V331.8
		c0-1.09-0.35-2.18-1.04-3.28c-0.7-1.09-1.74-1.79-3.13-2.09c-0.8-0.2-1.19-0.65-1.19-1.34v-0.3c0-0.99,0.5-1.49,1.49-1.49h21.17
		v6.26c-0.1,0.1,0.22-0.17,0.97-0.82c0.75-0.65,1.84-1.36,3.28-2.16c1.44-0.79,3.15-1.54,5.14-2.24c1.99-0.69,4.18-1.04,6.56-1.04
		c3.08,0,5.67,0.45,7.75,1.34c2.09,0.89,3.78,2.09,5.07,3.58c1.29,1.49,2.21,3.18,2.76,5.07c0.55,1.89,0.82,3.78,0.82,5.67
		c0,2.19-0.75,4.23-2.24,6.11c-1.49,1.89-3.33,2.83-5.52,2.83c-2.19,0-4.03-0.75-5.52-2.24
		C270.04,344.17,269.29,342.33,269.29,340.15z"/>
	
		<radialGradient id="SVGID_00000060001291716107289880000013818066975798194355_" cx="299.1909" cy="348.7945" r="35.9905" gradientUnits="userSpaceOnUse">
		<stop  offset="0" style="stop-color:#FBEC96"/>
		<stop  offset="1" style="stop-color:#B1903F"/>
	</radialGradient>
	<path style="fill:url(#SVGID_00000060001291716107289880000013818066975798194355_);stroke:#706231;stroke-miterlimit:10;" d="
		M312.09,326.58c-1.39,0.2-2.46,0.87-3.21,2.01c-0.75,1.14-1.12,2.26-1.12,3.36v57.11c0,1.1,0.37,2.21,1.12,3.36
		c0.75,1.14,1.81,1.81,3.21,2.01c0.79,0.2,1.19,0.7,1.19,1.49v0.3c0,0.99-0.5,1.49-1.49,1.49h-25.2c-0.99,0-1.49-0.5-1.49-1.49v-0.3
		c0-0.79,0.4-1.29,1.19-1.49c1.39-0.2,2.43-0.87,3.13-2.01c0.69-1.14,1.04-2.26,1.04-3.36v-57.11c0-1.09-0.35-2.21-1.04-3.36
		c-0.7-1.14-1.74-1.81-3.13-2.01c-0.8-0.2-1.19-0.7-1.19-1.49v-0.3c0-0.99,0.5-1.49,1.49-1.49h25.2c0.99,0,1.49,0.5,1.49,1.49v0.3
		C313.28,325.88,312.88,326.38,312.09,326.58z M299.12,317.18c-2.39,0-4.42-0.85-6.11-2.54c-1.69-1.69-2.54-3.73-2.54-6.11
		s0.84-4.42,2.54-6.11c1.69-1.69,3.73-2.54,6.11-2.54c2.39,0,4.42,0.85,6.11,2.54c1.69,1.69,2.54,3.73,2.54,6.11
		s-0.85,4.42-2.54,6.11C303.54,316.34,301.5,317.18,299.12,317.18z"/>
	
		<radialGradient id="SVGID_00000047051970297457470120000005449650192529116577_" cx="344.6691" cy="360.4998" r="32.6557" gradientUnits="userSpaceOnUse">
		<stop  offset="0" style="stop-color:#FBEC96"/>
		<stop  offset="1" style="stop-color:#B1903F"/>
	</radialGradient>
	<path style="fill:url(#SVGID_00000047051970297457470120000005449650192529116577_);stroke:#706231;stroke-miterlimit:10;" d="
		M348.77,397.7c-4.38,0-8.45-0.97-12.23-2.91c-3.78-1.94-7.11-4.57-9.99-7.9c-2.88-3.33-5.14-7.26-6.79-11.78
		c-1.64-4.52-2.46-9.37-2.46-14.54c0-5.17,0.84-10.01,2.53-14.54c1.69-4.52,3.98-8.47,6.86-11.85c2.88-3.38,6.31-6.04,10.29-7.98
		c3.97-1.94,8.25-2.91,12.82-2.91c6.76,0,11.85,1.64,15.28,4.92c3.43,3.28,5.14,7.26,5.14,11.93c0,2.19-0.75,4.18-2.24,5.96
		c-1.49,1.79-3.33,2.68-5.52,2.68c-2.19,0-4.03-0.74-5.52-2.24c-1.49-1.49-2.24-3.33-2.24-5.52c0-1.89,0.6-3.53,1.79-4.92
		c1.19-1.39,2.68-2.29,4.47-2.68c0-0.1-0.1-0.42-0.3-0.97c-0.2-0.54-0.57-1.07-1.12-1.56c-0.55-0.5-1.37-0.97-2.46-1.42
		c-1.1-0.45-2.53-0.67-4.32-0.67c-2.19,0-4.35,0.59-6.49,1.79c-2.14,1.19-4.08,3.06-5.82,5.59c-1.74,2.54-3.16,5.82-4.25,9.84
		c-1.1,4.03-1.64,8.87-1.64,14.54c0,4.18,0.52,7.88,1.57,11.11c1.04,3.23,2.43,5.99,4.17,8.28c1.74,2.29,3.8,4.03,6.19,5.22
		c2.39,1.19,4.92,1.79,7.6,1.79c2.58,0,4.79-0.6,6.64-1.79c1.84-1.19,3.36-2.53,4.55-4.03c1.29-1.69,2.39-3.63,3.28-5.82h3.43
		c0,1.69-0.45,3.8-1.34,6.34c-0.89,2.53-2.31,5-4.25,7.38c-1.94,2.39-4.38,4.43-7.31,6.11C356.2,396.86,352.74,397.7,348.77,397.7z"
		/>
	
		<radialGradient id="SVGID_00000054242489360258706120000000060341960179711158_" cx="364.5733" cy="344.6948" r="107.4118" gradientUnits="userSpaceOnUse">
		<stop  offset="0" style="stop-color:#FBEC96"/>
		<stop  offset="1" style="stop-color:#B1903F"/>
	</radialGradient>
	<path style="fill:url(#SVGID_00000054242489360258706120000000060341960179711158_);stroke:#706231;stroke-miterlimit:10;" d="
		M480.88,410.68c0.59,0,1.17,0.7,1.71,2.09s0.82,3.16,0.82,5.29c0,2.14-0.32,4.45-0.97,6.93c-0.65,2.48-1.84,4.8-3.58,6.93
		c-1.74,2.14-4.08,3.9-7.01,5.29c-2.93,1.39-6.69,2.09-11.26,2.09c-7.06,0-13.07-1.14-18.04-3.43c-4.97-2.29-9.15-5.34-12.52-9.17
		c-3.38-3.83-6.14-8.15-8.28-12.97c-2.14-4.82-3.95-9.74-5.44-14.76c-1.49-5.02-2.76-9.94-3.8-14.76
		c-1.04-4.82-2.16-9.14-3.35-12.97c-1.19-3.82-2.61-6.88-4.25-9.17s-3.8-3.43-6.49-3.43v30.57c0,1.1,0.37,2.19,1.12,3.28
		c0.75,1.1,1.81,1.79,3.21,2.09c0.69,0.2,1.04,0.65,1.04,1.34v0.3c0,0.99-0.5,1.49-1.49,1.49h-25.2c-0.99,0-1.49-0.5-1.49-1.49v-0.3
		c0-0.69,0.4-1.14,1.19-1.34c1.39-0.3,2.46-0.99,3.21-2.09c0.75-1.09,1.12-2.19,1.12-3.28v-82.16V306
		c-9.14-0.99-18.04-2.56-26.69-4.7c-8.65-2.14-16.97-4.27-24.98-6.41c-8-2.14-15.61-4.02-22.81-5.67
		c-7.21-1.64-13.89-2.46-20.06-2.46c-6.56,0-12.03,0.9-16.4,2.68c-4.37,1.79-7.85,3.88-10.44,6.26c-2.58,2.38-4.4,4.8-5.44,7.23
		c-1.04,2.44-1.57,4.3-1.57,5.59c-1.49,0-2.88-0.99-4.18-2.98c-1.29-1.99-2.16-4.45-2.61-7.38c-0.45-2.93-0.22-6.14,0.67-9.62
		c0.89-3.48,2.81-6.68,5.74-9.62c2.93-2.93,7.08-5.39,12.45-7.38c5.37-1.99,12.38-2.98,21.02-2.98c4.28,0,8.92,0.57,13.94,1.72
		c5.02,1.14,10.24,2.63,15.66,4.47c5.42,1.84,10.99,3.9,16.7,6.19c5.72,2.29,11.38,4.55,17,6.78c5.62,2.24,11.16,4.4,16.63,6.49
		c5.47,2.09,10.68,3.78,15.66,5.07c0.4-5.17,1.29-10.66,2.68-16.48c1.39-5.82,3.68-11.13,6.86-15.96c3.18-4.82,7.38-8.82,12.6-12
		s11.8-4.77,19.76-4.77c7.75,0,14.41,1.39,19.98,4.18c5.57,2.78,9.67,6.29,12.3,10.51c2.63,4.23,3.68,8.8,3.13,13.72
		c-0.55,4.92-3.03,9.49-7.46,13.72c-4.42,4.23-10.96,7.75-19.61,10.59c-8.65,2.83-19.73,4.25-33.25,4.25v27.88
		c1.09-2.98,2.53-5.67,4.32-8.05c1.59-1.99,3.7-3.83,6.34-5.52c2.63-1.69,5.94-2.53,9.92-2.53c3.68,0,6.93,1.19,9.77,3.58
		s4.25,5.47,4.25,9.24c0,2.29-0.67,4.57-2.01,6.86c-1.34,2.29-3.08,4.5-5.22,6.64c-2.14,2.14-4.57,4.12-7.31,5.96
		c-2.74,1.84-5.49,3.35-8.28,4.55c1.99,2.68,3.98,6.16,5.96,10.44c1.99,4.28,4.1,8.82,6.34,13.64c2.24,4.82,4.7,9.67,7.38,14.54
		s5.74,9.27,9.17,13.19c3.43,3.93,7.28,7.13,11.55,9.62c4.27,2.48,9.19,3.73,14.76,3.73c2.88,0,5.32-0.52,7.31-1.57
		c1.99-1.04,3.58-2.21,4.77-3.5C478.84,414.26,479.99,412.56,480.88,410.68z M423.62,254.86c-5.57,0-9.99,1.37-13.27,4.1
		c-3.28,2.74-5.79,6.09-7.53,10.06c-1.74,3.98-2.88,8.23-3.43,12.75c-0.55,4.52-0.87,8.57-0.97,12.15v8.05h0.15
		c10.04,0,18.16-1.17,24.38-3.5c6.21-2.34,10.86-5.24,13.94-8.72c3.08-3.48,4.82-7.26,5.22-11.33c0.4-4.07-0.15-7.85-1.64-11.33
		c-1.49-3.48-3.75-6.39-6.78-8.72C430.65,256.02,427.3,254.86,423.62,254.86z M398.42,351.93c0.79,0,2.19-0.45,4.17-1.34
		c1.39-0.69,2.91-1.56,4.55-2.61c1.64-1.04,3.15-2.24,4.55-3.58c1.39-1.34,2.56-2.81,3.5-4.4c0.94-1.59,1.42-3.28,1.42-5.07
		c0-2.38-0.95-3.7-2.83-3.95c-1.89-0.25-3.98,0.35-6.26,1.79c-2.29,1.44-4.37,3.53-6.26,6.26c-1.89,2.74-2.83,5.84-2.83,9.32V351.93
		z"/>
	
		<radialGradient id="SVGID_00000007401654811595399020000001237589897320853417_" cx="481.329" cy="360.4998" r="43.1168" gradientUnits="userSpaceOnUse">
		<stop  offset="0" style="stop-color:#FBEC96"/>
		<stop  offset="1" style="stop-color:#B1903F"/>
	</radialGradient>
	<path style="fill:url(#SVGID_00000007401654811595399020000001237589897320853417_);stroke:#706231;stroke-miterlimit:10;" d="
		M529.64,324.79v0.3c0,0.8-0.4,1.3-1.19,1.49c-1.39,0.2-2.44,0.82-3.13,1.86c-0.7,1.04-1.24,2.21-1.64,3.5v-0.15L503.1,397.7h-6.26
		l-14.91-46.22l-14.46,46.22h-6.26l-22.07-68.14l0.74,2.39c-0.3-1.09-0.85-2.26-1.64-3.5c-0.8-1.24-2.04-1.86-3.73-1.86
		c-0.3,0-0.62-0.17-0.97-0.52c-0.35-0.35-0.52-0.67-0.52-0.97v-0.3c0-0.99,0.5-1.49,1.49-1.49h2.54h21.32c0.99,0,1.49,0.5,1.49,1.49
		v0.3c0,0.8-0.35,1.3-1.04,1.49c-1.69,0.3-2.44,1.29-2.23,2.98L470,369.37l8.65-27.74l-3.58-11.18c-0.4-0.99-0.97-1.89-1.72-2.68
		c-0.74-0.79-1.77-1.19-3.05-1.19c-0.3,0-0.62-0.17-0.97-0.52c-0.35-0.35-0.52-0.67-0.52-0.97v-0.3c0-0.99,0.5-1.49,1.49-1.49h2.68
		h21.17c0.99,0,1.49,0.5,1.49,1.49v0.3c0,0.8-0.4,1.3-1.19,1.49c-0.99,0.2-1.64,0.62-1.94,1.27c-0.3,0.65-0.35,1.37-0.15,2.16
		l0.6,1.79v0.15v-0.15l12.67,37.58l11.93-38.02c0.3-1.09,0.4-2.11,0.3-3.06c-0.1-0.94-0.8-1.51-2.09-1.71
		c-0.8-0.2-1.19-0.7-1.19-1.49v-0.3c0-0.99,0.5-1.49,1.49-1.49h12.08C529.14,323.3,529.64,323.8,529.64,324.79z"/>
	
		<radialGradient id="SVGID_00000098222311588655813160000002358971339712331417_" cx="558.2695" cy="360.4998" r="34.3849" gradientUnits="userSpaceOnUse">
		<stop  offset="0" style="stop-color:#FBEC96"/>
		<stop  offset="1" style="stop-color:#B1903F"/>
	</radialGradient>
	<path style="fill:url(#SVGID_00000098222311588655813160000002358971339712331417_);stroke:#706231;stroke-miterlimit:10;" d="
		M554.24,397.7c-3.78,0-7.33-0.65-10.66-1.94c-3.33-1.3-6.21-3.09-8.65-5.38c-2.44-2.29-4.38-4.96-5.82-8
		c-1.44-3.04-2.16-6.31-2.16-9.8c0-3.49,0.72-6.78,2.16-9.87c1.44-3.09,3.38-5.78,5.82-8.08c2.43-2.29,5.32-4.09,8.65-5.38
		c3.33-1.3,6.88-1.94,10.66-1.94c4.37,0,8.6,0.98,12.68,2.95v-11.76c-0.2-2.08-0.75-4.02-1.64-5.81c-0.8-1.49-1.97-2.85-3.5-4.09
		c-1.54-1.24-3.75-1.86-6.64-1.86c-2.78,0-5.02,0.35-6.71,1.04c-1.69,0.7-2.88,1.49-3.58,2.39c1.59,0.5,2.86,1.42,3.8,2.76
		c0.94,1.34,1.41,2.86,1.41,4.55c0,2.09-0.74,3.9-2.23,5.44c-1.49,1.54-3.33,2.31-5.52,2.31s-4.03-0.77-5.52-2.31
		c-1.49-1.54-2.24-3.36-2.24-5.44c0-0.1,0.08-0.89,0.22-2.39c0.15-1.49,0.89-3.11,2.24-4.85c1.34-1.74,3.53-3.33,6.56-4.77
		c3.03-1.44,7.48-2.16,13.35-2.16c2.98,0,6.06,0.3,9.24,0.9c3.18,0.6,6.11,1.74,8.8,3.43c2.68,1.69,4.89,4,6.64,6.93
		c1.74,2.93,2.61,6.78,2.61,11.56v43.09c0,1.1,0.35,2.19,1.04,3.28c0.7,1.1,1.74,1.79,3.13,2.09c0.79,0.2,1.19,0.65,1.19,1.34v0.3
		c0,0.99-0.5,1.49-1.49,1.49h-21.17v-2.95C562.84,396.72,558.62,397.7,554.24,397.7z M554.24,351.18c-1.39,0-2.68,0.57-3.88,1.71
		c-1.19,1.14-2.24,2.67-3.13,4.6c-0.9,1.93-1.62,4.19-2.16,6.76c-0.55,2.58-0.82,5.35-0.82,8.32c0,2.97,0.27,5.75,0.82,8.32
		c0.55,2.58,1.27,4.83,2.16,6.76c0.89,1.93,1.94,3.44,3.13,4.53c1.19,1.09,2.49,1.63,3.88,1.63c0.69,0,1.64-0.05,2.83-0.15
		c1.19-0.1,2.41-0.52,3.65-1.26c1.24-0.74,2.43-1.9,3.58-3.49c1.14-1.58,2.01-3.86,2.61-6.83v-19.17c-0.6-2.97-1.47-5.25-2.61-6.83
		c-1.15-1.59-2.34-2.75-3.58-3.49s-2.46-1.16-3.65-1.26C555.88,351.23,554.94,351.18,554.24,351.18z"/>
	
		<radialGradient id="SVGID_00000005976602032930677750000016448727930286860218_" cx="613.5161" cy="349.093" r="38.174" gradientUnits="userSpaceOnUse">
		<stop  offset="0" style="stop-color:#FBEC96"/>
		<stop  offset="1" style="stop-color:#B1903F"/>
	</radialGradient>
	<path style="fill:url(#SVGID_00000005976602032930677750000016448727930286860218_);stroke:#706231;stroke-miterlimit:10;" d="
		M629.25,371.61c2.19,0,4.03,0.8,5.52,2.39c1.49,1.59,2.24,3.53,2.24,5.82c0,2.29-0.35,4.5-1.04,6.64c-0.7,2.14-1.74,4.05-3.13,5.74
		c-1.39,1.69-3.16,3.03-5.29,4.03c-2.14,0.99-4.6,1.49-7.38,1.49c-4.47,0-8.13-0.79-10.96-2.39c-2.83-1.59-5.1-3.8-6.78-6.64
		c-1.69-2.83-2.86-6.16-3.5-9.99c-0.65-3.82-0.97-7.93-0.97-12.3v-37.57h-7.9v-5.52h7.9v-14.16c0-1.09-0.37-2.19-1.12-3.28
		c-0.74-1.09-1.81-1.79-3.21-2.09c-0.7-0.2-1.04-0.69-1.04-1.49v-0.3c0-0.99,0.5-1.49,1.49-1.49h25.2c0.99,0,1.49,0.5,1.49,1.49v0.3
		c0,0.8-0.4,1.29-1.19,1.49c-1.39,0.3-2.46,1-3.21,2.09c-0.74,1.1-1.12,2.19-1.12,3.28v14.16h14.02v5.52h-14.02v44.58
		c0,5.27,0.67,9.37,2.01,12.3c1.34,2.93,3.6,4.4,6.78,4.4c1.69,0,3.13-0.32,4.32-0.97c1.19-0.65,2.18-1.42,2.98-2.31
		c-0.4,0.1-0.75,0.17-1.04,0.22c-0.3,0.05-0.65,0.07-1.04,0.07c-2.09,0-3.9-0.74-5.44-2.23c-1.54-1.49-2.31-3.33-2.31-5.52
		c0-2.18,0.77-4.03,2.31-5.52S627.16,371.61,629.25,371.61z"/>
	
		<radialGradient id="SVGID_00000179632857669533610010000008059105228946113197_" cx="658.548" cy="349.093" r="38.174" gradientUnits="userSpaceOnUse">
		<stop  offset="0" style="stop-color:#FBEC96"/>
		<stop  offset="1" style="stop-color:#B1903F"/>
	</radialGradient>
	<path style="fill:url(#SVGID_00000179632857669533610010000008059105228946113197_);stroke:#706231;stroke-miterlimit:10;" d="
		M674.28,371.61c2.19,0,4.03,0.8,5.52,2.39c1.49,1.59,2.24,3.53,2.24,5.82c0,2.29-0.35,4.5-1.04,6.64c-0.7,2.14-1.74,4.05-3.13,5.74
		c-1.39,1.69-3.16,3.03-5.29,4.03c-2.14,0.99-4.6,1.49-7.38,1.49c-4.47,0-8.13-0.79-10.96-2.39c-2.83-1.59-5.1-3.8-6.78-6.64
		c-1.69-2.83-2.86-6.16-3.5-9.99c-0.65-3.82-0.97-7.93-0.97-12.3v-37.57h-7.9v-5.52h7.9v-14.16c0-1.09-0.37-2.19-1.12-3.28
		c-0.74-1.09-1.81-1.79-3.21-2.09c-0.7-0.2-1.04-0.69-1.04-1.49v-0.3c0-0.99,0.5-1.49,1.49-1.49h25.2c0.99,0,1.49,0.5,1.49,1.49v0.3
		c0,0.8-0.4,1.29-1.19,1.49c-1.39,0.3-2.46,1-3.21,2.09c-0.74,1.1-1.12,2.19-1.12,3.28v14.16h14.02v5.52h-14.02v44.58
		c0,5.27,0.67,9.37,2.01,12.3c1.34,2.93,3.6,4.4,6.78,4.4c1.69,0,3.13-0.32,4.32-0.97c1.19-0.65,2.18-1.42,2.98-2.31
		c-0.4,0.1-0.75,0.17-1.04,0.22c-0.3,0.05-0.65,0.07-1.04,0.07c-2.09,0-3.9-0.74-5.44-2.23c-1.54-1.49-2.31-3.33-2.31-5.52
		c0-2.18,0.77-4.03,2.31-5.52S672.19,371.61,674.28,371.61z"/>
	
		<radialGradient id="SVGID_00000016054298875905039780000017409594737682316478_" cx="711.372" cy="360.4998" r="32.027" gradientUnits="userSpaceOnUse">
		<stop  offset="0" style="stop-color:#FBEC96"/>
		<stop  offset="1" style="stop-color:#B1903F"/>
	</radialGradient>
	<path style="fill:url(#SVGID_00000016054298875905039780000017409594737682316478_);stroke:#706231;stroke-miterlimit:10;" d="
		M701.42,339.4c0,2.68,0.89,4.77,2.68,6.26c1.79,1.49,4,2.76,6.64,3.8c2.63,1.04,5.49,2.04,8.57,2.98c3.08,0.95,5.94,2.21,8.57,3.8
		c2.63,1.59,4.85,3.73,6.64,6.41c1.79,2.68,2.68,6.26,2.68,10.74c0,3.58-0.75,6.86-2.24,9.84c-1.49,2.98-3.46,5.54-5.89,7.68
		c-2.44,2.14-5.27,3.8-8.5,5c-3.23,1.19-6.59,1.79-10.07,1.79c-6.46,0-11.53-1.09-15.21-3.28c-3.68-2.19-6.29-4.75-7.83-7.68
		c-1.54-2.93-2.16-5.86-1.86-8.8c0.3-2.93,1.14-5.09,2.54-6.49c1.69-1.99,3.73-2.98,6.11-2.98c2.18,0,4.03,0.75,5.52,2.24
		c1.49,1.49,2.24,3.33,2.24,5.52c0,2.19-0.75,4.03-2.24,5.52c-1.49,1.49-3.33,2.24-5.52,2.24c-1.1,0-2.24-0.25-3.43-0.75
		c0.99,2.05,2.58,3.85,4.77,5.42c2.18,1.56,5.42,2.34,9.69,2.34c2.68,0,5.02-0.37,7.01-1.11s3.65-1.69,5-2.83
		c1.34-1.14,2.36-2.41,3.06-3.79c0.69-1.39,1.04-2.78,1.04-4.16c0-2.48-0.87-4.44-2.61-5.88c-1.74-1.44-3.9-2.68-6.49-3.72
		c-2.59-1.04-5.37-2.08-8.35-3.12c-2.98-1.04-5.77-2.4-8.35-4.09c-2.59-1.69-4.75-3.87-6.49-6.55c-1.74-2.68-2.61-6.25-2.61-10.71
		c0-3.07,0.57-5.92,1.71-8.55c1.14-2.63,2.78-4.91,4.92-6.85c2.14-1.93,4.77-3.47,7.9-4.61c3.13-1.14,6.64-1.71,10.51-1.71
		c7.16,0,12.4,1.77,15.73,5.29c3.33,3.53,5,7.88,5,13.05c0,2.09-0.75,3.9-2.24,5.44c-1.49,1.54-3.33,2.31-5.52,2.31
		s-4.03-0.77-5.52-2.31s-2.24-3.36-2.24-5.44c0-2.18,0.75-4.05,2.24-5.59c1.49-1.54,3.33-2.31,5.52-2.31c0.4,0,0.99,0.1,1.79,0.3
		c-1.1-1.69-2.54-2.98-4.32-3.88c-1.79-0.9-4.17-1.34-7.16-1.34c-4.38,0-7.71,1.04-9.99,3.13
		C702.56,334.03,701.42,336.52,701.42,339.4z"/>
</g>
<g id="Label_x5F_14_00000076589906000529539950000014244294697606914207_">
	
		<radialGradient id="Trowel_00000183245552433705322700000004555699518049690502_" cx="570.6591" cy="216.2619" r="88.7758" gradientUnits="userSpaceOnUse">
		<stop  offset="0" style="stop-color:#FBEC96"/>
		<stop  offset="1" style="stop-color:#B1903F"/>
	</radialGradient>
	
		<path id="Trowel_00000162331313019990925890000007117076217925541816_" style="fill:url(#Trowel_00000183245552433705322700000004555699518049690502_);stroke:#706231;stroke-width:0.5;stroke-miterlimit:10;" d="
		M655.16,130.71c0,0,0.34,0.11,0.96,0.41c0.61,0.3,1.51,0.77,2.48,1.62c0.96,0.86,2,2.06,2.81,3.71c0.38,0.83,0.71,1.75,0.92,2.76
		c0.2,1.01,0.26,2.11,0.18,3.24c-0.08,1.14-0.35,2.31-0.82,3.46c-0.45,1.16-1.2,2.25-1.88,3.25c-1.4,2.07-2.9,4.23-4.53,6.42
		c-1.63,2.19-3.31,4.44-5.12,6.66c-1.8,2.22-3.67,4.45-5.58,6.64c-1.94,2.17-3.9,4.32-5.9,6.36c-1.98,2.07-4.03,4.01-6.02,5.87
		c-3.99,3.7-7.88,6.98-11.3,9.68c-3.4,2.72-6.36,4.82-8.42,6.29c-2.07,1.46-3.29,2.25-3.29,2.25s1.11-0.93,3.06-2.55
		c1.96-1.61,4.69-3.98,7.93-6.85c1.62-1.44,3.35-3.02,5.18-4.7c1.83-1.69,3.7-3.49,5.66-5.37c1.93-1.88,3.88-3.88,5.84-5.93
		c1.97-2.04,3.89-4.19,5.8-6.35c3.82-4.31,7.47-8.78,10.8-13.04c1.65-2.14,3.24-4.22,4.71-6.22c0.76-1.03,1.41-1.92,1.87-2.93
		c0.47-1,0.77-2.04,0.9-3.06c0.28-2.05-0.04-3.99-0.64-5.59c-0.63-1.58-1.54-2.83-2.4-3.72c-0.88-0.88-1.69-1.46-2.27-1.81
		C655.5,130.86,655.16,130.71,655.16,130.71z M612.13,186.56c0,0,0.01,0,0.02,0.01C612.13,186.56,612.12,186.56,612.13,186.56z
		 M604.35,172.99c-0.8,0.49-1.28,0.76-1.28,0.76s0.4-0.36,1.13-0.97c0.73-0.6,1.73-1.49,2.87-2.6c0.56-0.56,1.17-1.17,1.75-1.86
		c0.58-0.69,1.15-1.44,1.72-2.27c0.57-0.83,1.21-1.71,1.98-2.5c0.77-0.79,1.64-1.49,2.55-2.11c0.91-0.61,1.84-1.2,2.78-1.7
		c0.96-0.51,1.8-1.02,2.59-1.58c1.59-1.16,2.96-2.43,4.09-3.56c1.13-1.13,2.03-2.13,2.64-2.85c0.62-0.71,0.96-1.13,0.96-1.13
		s-1.06,1.89-3.11,4.41c-1.03,1.26-2.34,2.65-3.95,3.95c-0.82,0.66-1.75,1.23-2.64,1.76c-0.9,0.54-1.8,1.1-2.65,1.7
		c-0.85,0.61-1.67,1.25-2.39,1.96c-0.71,0.72-1.32,1.51-1.94,2.31c-0.61,0.81-1.24,1.59-1.91,2.26c-0.66,0.68-1.33,1.27-1.97,1.78
		c-0.64,0.51-1.24,0.96-1.79,1.31C605.23,172.44,604.75,172.75,604.35,172.99z M551.71,208.37c0,0-0.92,1.34-2.52,3.67
		c-1.64,2.31-3.91,5.66-6.75,9.6c-2.85,3.93-6.11,8.56-9.71,13.45c-1.8,2.44-3.66,4.97-5.55,7.53c-1.9,2.55-3.84,5.15-5.77,7.74
		c-1.95,2.58-3.9,5.16-5.82,7.7c-1.94,2.53-3.84,5.02-5.68,7.43c-3.69,4.82-7.22,9.25-10.21,13.08c-2.98,3.83-5.57,6.95-7.33,9.16
		c-1.8,2.19-2.82,3.44-2.82,3.44s0.92-1.34,2.52-3.67c1.64-2.31,3.91-5.66,6.75-9.6c2.85-3.93,6.11-8.56,9.71-13.45
		c1.8-2.44,3.66-4.97,5.55-7.53c1.9-2.55,3.84-5.15,5.77-7.74c1.95-2.58,3.9-5.16,5.83-7.7c1.94-2.53,3.84-5.02,5.68-7.43
		c3.69-4.82,7.22-9.25,10.21-13.08c2.99-3.83,5.57-6.95,7.33-9.16C550.69,209.62,551.71,208.37,551.71,208.37z M631.49,252.59
		c0.29-2.04-0.6-4.01-2.32-5.15l-36.42-24.02c0.42-0.77,0.67-1.65,0.74-2.46c0.07-0.85-0.02-1.62-0.16-2.32
		c-0.14-0.7-0.34-1.32-0.56-1.9c-0.43-1.17-0.95-2.17-1.46-3.12c-1.04-1.89-2.08-3.55-3.06-5.07c-0.12-0.19-0.24-0.38-0.36-0.56
		l-0.18-0.28l-0.04-0.07l-0.02-0.03l-0.05-0.09l-0.16-0.27c-0.03-0.06-0.03-0.08-0.05-0.12c-0.03-0.05-0.08-0.19-0.12-0.29
		c-0.14-0.43-0.19-0.85-0.14-1.3c0.01-0.07,0.02-0.15,0.03-0.22c2.65,1.56,5.37,1.96,7.28,0.78l0,0c0,0,16.62-9.85,35.46-27.78
		c12.52-11.91,22.23-24.9,27.31-32.22c2.34-3.38,2-7.94-0.82-10.94c-2.76-2.94-7.18-3.61-10.69-1.6
		c-7.79,4.45-21.76,13.17-34.12,24.81c-18.34,17.26-28.52,32.34-29.7,33.98c-1.48,2.05-1,6.64,1.44,9.75
		c-0.06,0.14-0.12,0.27-0.18,0.42c-0.29,0.73-0.54,1.59-0.65,2.58c-0.11,0.99-0.02,2.12,0.35,3.23c0.11,0.28,0.18,0.53,0.34,0.85
		c0.07,0.15,0.15,0.32,0.22,0.44l0.16,0.27l0.08,0.14l0.14,0.22l0.17,0.27c0.11,0.18,0.23,0.36,0.35,0.55
		c0.92,1.48,1.91,3.09,2.79,4.79c0.43,0.85,0.85,1.72,1.15,2.56c0.32,0.84,0.49,1.66,0.46,2.17c0,0.06-0.01,0.11-0.02,0.15
		l-28.45-18.77c-1.35-0.89-2.92-1.36-4.54-1.36c-2.62,0-5.02,1.2-6.59,3.28l-69.61,92.27c-0.82,1.09-0.95,2.47-0.35,3.68
		c0.61,1.22,1.81,1.98,3.13,1.98c0.36,0,0.72-0.06,1.08-0.17l144.48-44.76C629.8,256.28,631.2,254.63,631.49,252.59z M587.64,203.8
		c0.06-0.12,0.12-0.24,0.18-0.35c0-0.01,0.01-0.01,0.01-0.02c0.06-0.11,0.12-0.22,0.18-0.33c0,0,0,0,0,0l0.94,1.35
		C588.5,204.26,588.06,204.04,587.64,203.8z M623.92,178.41c-0.68,0.71-1.65,1.59-2.67,2.41c-1.02,0.81-2.09,1.55-2.94,2.06
		c-0.84,0.51-1.46,0.78-1.46,0.78s0.4-0.54,1.09-1.25c0.68-0.71,1.65-1.59,2.66-2.41c1.02-0.81,2.09-1.55,2.94-2.06
		c0.84-0.51,1.46-0.78,1.46-0.78S624.61,177.71,623.92,178.41z M625.99,173.86c-0.7,0.61-1.67,1.51-2.87,2.54
		c-1.2,1.03-2.59,2.24-4.09,3.53c-1.49,1.29-3.08,2.67-4.58,4.11c-0.36,0.37-0.71,0.71-1.07,1.09l-0.52,0.59
		c-0.13,0.16-0.3,0.38-0.41,0.56c-0.06,0.09-0.11,0.19-0.15,0.28c0.37-0.01,0.85-0.15,1.28-0.29c1.81-0.64,3.46-1.5,4.85-2.23
		c1.4-0.73,2.54-1.4,3.32-1.89c0.79-0.48,1.24-0.76,1.24-0.76s-1.6,1.4-4.27,3.15c-1.35,0.86-2.92,1.84-4.82,2.62
		c-0.49,0.18-0.96,0.38-1.61,0.43c-0.17,0-0.35,0.01-0.61-0.1c-0.28-0.08-0.54-0.52-0.51-0.78c0.02-0.51,0.2-0.74,0.34-1.01
		c0.15-0.26,0.3-0.47,0.49-0.72l0.49-0.61c0.34-0.41,0.73-0.82,1.11-1.2c1.51-1.53,3.13-2.9,4.68-4.16
		c1.55-1.25,3.04-2.35,4.34-3.27c2.6-1.83,4.44-2.9,4.44-2.9S626.69,173.25,625.99,173.86z M643.55,160.99
		c-1.31,1.88-3.22,4.27-5.29,6.52c-2.07,2.25-4.28,4.36-6.02,5.85c-1.73,1.5-2.99,2.38-2.99,2.38s0.97-1.19,2.49-2.89
		c1.51-1.71,3.55-3.95,5.6-6.18c2.05-2.23,4.11-4.46,5.65-6.13c1.55-1.67,2.62-2.77,2.62-2.77S644.87,159.11,643.55,160.99z
		 M646.55,135.07c2.37-1.2,4.89-1.08,6.94,0.2c4.36,2.71-6.85,7.13-5.48,11.87c1.2,4.17,0.36,8.54,0.36,8.54
		c-1.25-8.96-8.26-12.83-13.63-13.56C634.75,142.12,643.67,136.54,646.55,135.07z M612.71,159.55c6.79-6.39,14.09-11.9,20.51-16.27
		c2,0.27,6.29,1.23,9.54,4.63c0.47,0.49,0.88,0.99,1.26,1.5l0,0c0.01,0.01,0.02,0.03,0.03,0.04c0.15,0.19,0.3,0.4,0.44,0.62
		c0.14,0.22,0.31,0.45,0.45,0.7c0.14,0.25,0.3,0.5,0.43,0.77c0.14,0.27,0.28,0.54,0.4,0.82c0.13,0.28,0.24,0.56,0.35,0.83
		c0.11,0.27,0.2,0.55,0.29,0.82c0.17,0.54,0.31,1.04,0.41,1.48c0.2,0.87,0.25,1.47,0.25,1.47s-0.15-0.57-0.5-1.39
		c-0.17-0.41-0.39-0.87-0.64-1.35c-0.13-0.24-0.26-0.49-0.42-0.73c-0.15-0.25-0.3-0.49-0.47-0.73c-0.16-0.24-0.33-0.47-0.5-0.7
		c-0.16-0.23-0.35-0.44-0.52-0.64c-0.17-0.21-0.35-0.39-0.52-0.57c-0.15-0.16-0.29-0.3-0.42-0.42c-2.88,3.15-9.47,10.2-16.64,16.91
		c-0.44,0.3-0.9,0.6-1.4,0.88c-0.43,0.26-0.9,0.48-1.37,0.67c-0.47,0.2-0.98,0.33-1.52,0.47c-0.54,0.15-1.12,0.3-1.66,0.52
		c-0.54,0.21-1.06,0.47-1.53,0.75c-0.48,0.26-0.91,0.57-1.3,0.86c-0.41,0.28-0.76,0.59-1.09,0.87c-0.67,0.55-1.15,1.06-1.5,1.41
		c-0.34,0.36-0.54,0.57-0.54,0.57s0.25-0.14,0.69-0.38c0.43-0.24,1.04-0.62,1.77-1.03c0.72-0.42,1.56-0.91,2.49-1.34
		c0.45-0.24,0.94-0.41,1.43-0.59c0.49-0.18,1.01-0.31,1.56-0.44c0.55-0.15,1.13-0.32,1.67-0.56c0.55-0.23,1.04-0.55,1.49-0.86
		c0.04-0.03,0.08-0.06,0.12-0.08c0.18-0.11,0.36-0.23,0.54-0.35c1.43-0.98,2.72-2.2,3.66-3.13c0.94-0.93,1.55-1.58,1.55-1.58
		s-0.53,0.71-1.38,1.74c-0.84,1.03-2,2.39-3.37,3.57c-0.34,0.3-0.71,0.57-1.08,0.83c-0.37,0.26-0.76,0.49-1.15,0.69
		c-0.78,0.4-1.57,0.65-2.22,0.83c-0.33,0.09-0.63,0.17-0.9,0.24c-6.02,5.3-11.77,9.89-14.77,12.28c0.13,0.24,0.29,0.49,0.41,0.77
		c0.14,0.3,0.3,0.6,0.44,0.93c0.14,0.33,0.29,0.67,0.42,1.02c0.12,0.35,0.26,0.71,0.37,1.07c0.11,0.36,0.23,0.72,0.31,1.09
		c0.04,0.18,0.09,0.36,0.13,0.54c0.04,0.18,0.07,0.35,0.11,0.53c0.08,0.34,0.12,0.68,0.17,1c0.04,0.32,0.08,0.62,0.1,0.9
		c0.1,1.12,0.03,1.86,0.03,1.86s-0.04-0.74-0.28-1.82c-0.06-0.27-0.14-0.56-0.22-0.86c-0.09-0.3-0.18-0.62-0.3-0.95
		c-0.06-0.16-0.11-0.33-0.17-0.49c-0.07-0.16-0.13-0.33-0.2-0.5c-0.13-0.34-0.29-0.66-0.44-0.99c-0.15-0.33-0.33-0.65-0.49-0.96
		c-0.17-0.31-0.36-0.61-0.53-0.9c-0.18-0.29-0.37-0.55-0.54-0.81c-0.17-0.26-0.35-0.48-0.51-0.69c-0.17-0.21-0.29-0.4-0.45-0.57
		c-0.01-0.01-0.02-0.02-0.03-0.03c-0.15-0.16-0.3-0.32-0.46-0.48c-1.2-1.2-2.44-2.07-3.65-2.71c0.21-0.16,0.41-0.32,0.62-0.48
		c1.38-1.14,2.5-2.5,3.42-3.35c0.46-0.45,0.88-0.73,1.19-0.94c0.35-0.17,0.55-0.27,0.55-0.27s-0.22,0-0.61,0.03
		c-0.39,0.08-0.97,0.24-1.55,0.6c-1.21,0.68-2.48,1.9-3.79,2.97c-0.32,0.28-0.66,0.54-0.98,0.8c-0.03,0.02-0.05,0.04-0.08,0.06
		c-2.41-1-4.57-1.13-5.76-1.1C599.62,172.62,605.97,165.9,612.71,159.55z M592.62,181.01c0,0,5.26-0.26,9.07,2.72
		c5,3.9-5.21,5.83-4.35,9.72c1.02,4.62,0.5,7.81-0.75,9.42c0.01-0.06,0.03-0.13,0.04-0.19c0.47-2.97-1.27-6.39-3.2-8.47
		c-2.23-2.39-5.65-3.88-8.31-3.62C587.16,187.9,589.82,184.56,592.62,181.01z M582.66,194.71c0.19-1.32,1.25-2.34,2.58-2.48l0.03,0
		c2.16-0.22,5.09,1.09,6.96,3.11c1.97,2.11,3.11,5.03,2.78,7.1c0,0.01,0,0.02-0.01,0.03c-0.01,0.08-0.03,0.17-0.05,0.25l-4.6-3.64
		c0.01,0.08,0.01,0.15,0.01,0.23c0.01,0.54-0.18,1.06-0.42,1.36c-0.08,0.1-0.15,0.18-0.22,0.24c0,0,0,0,0,0
		c0.78-0.85,0.24-2.06-0.65-2.84c0,0,0,0,0,0c-0.01-0.01-0.02-0.02-0.03-0.03l-0.07-0.06c0,0,0,0,0,0
		c-0.02-0.02-0.05-0.03-0.07-0.05c-0.03-0.02-0.06-0.05-0.09-0.07c-0.03-0.02-0.05-0.04-0.08-0.05c-0.03-0.02-0.06-0.04-0.09-0.06
		c-0.03-0.02-0.05-0.03-0.08-0.05c-0.03-0.02-0.06-0.03-0.09-0.05c-0.03-0.01-0.05-0.03-0.08-0.04c-0.03-0.02-0.06-0.03-0.09-0.04
		c-0.03-0.01-0.05-0.02-0.08-0.04c-0.03-0.01-0.06-0.03-0.1-0.04c-0.03-0.01-0.05-0.02-0.08-0.03c-0.04-0.01-0.07-0.02-0.11-0.03
		c-0.02-0.01-0.04-0.01-0.07-0.02c-0.06-0.02-0.11-0.03-0.17-0.04c-0.01,0-0.02,0-0.04-0.01c-0.05-0.01-0.09-0.01-0.13-0.02
		c-0.02,0-0.04,0-0.06,0c-0.04,0-0.07,0-0.11,0c-0.02,0-0.04,0-0.07,0c-0.03,0-0.07,0-0.1,0.01c-0.02,0-0.04,0.01-0.07,0.01
		c-0.03,0.01-0.06,0.01-0.1,0.02c-0.02,0.01-0.04,0.01-0.06,0.02c-0.03,0.01-0.06,0.02-0.09,0.03c-0.02,0.01-0.04,0.01-0.06,0.02
		c-0.03,0.01-0.07,0.03-0.1,0.05c-0.02,0.01-0.03,0.02-0.05,0.03c-0.05,0.03-0.09,0.06-0.14,0.1c-0.04,0.04-0.31,0.28-0.75,0.77
		c-0.43,0.48-1.03,1.18-1.66,2.2C583.15,198.94,582.39,196.6,582.66,194.71z M590.18,221.11c0.13-0.36,0.17-0.74,0.13-1.14
		c-0.02-0.21-0.05-0.35-0.1-0.58l-0.1-0.34l-0.11-0.29c-0.32-0.84-0.73-1.67-1.14-2.47c-0.82-1.62-1.69-3.16-2.53-4.61
		c-0.42-0.72-0.83-1.43-1.23-2.11c-0.39-0.65-0.85-1.39-1.05-2.16c-0.41-1.54-0.2-2.99,0.15-4.16c0.37-1.17,0.88-2.11,1.36-2.84
		c0.47-0.73,0.94-1.23,1.26-1.56c0.33-0.32,0.51-0.49,0.51-0.49s-0.16,0.19-0.45,0.55c-0.27,0.37-0.67,0.91-1.06,1.66
		c-0.4,0.75-0.8,1.7-1.05,2.83c-0.22,1.12-0.35,2.47,0.08,3.76c0.21,0.65,0.6,1.2,1.06,1.88c0.44,0.67,0.89,1.35,1.35,2.06
		c0.89,1.44,1.81,2.97,2.7,4.6c0.43,0.83,0.86,1.67,1.22,2.59c0.37,0.88,0.63,2.14,0.21,3.24c-0.4,1.12-1.27,1.89-2.07,2.49
		c-0.79,0.58-1.59,1.15-2.39,1.73c-3.18,2.29-6.37,4.57-9.38,6.68c-3.01,2.11-5.82,4.07-8.23,5.76c-2.43,1.66-4.45,3.04-5.87,4.01
		c-1.43,0.95-2.24,1.5-2.24,1.5s0.77-0.61,2.11-1.67c1.36-1.05,3.29-2.55,5.62-4.35c2.34-1.77,5.08-3.84,8.01-6.06
		c2.93-2.22,6.08-4.54,9.24-6.87C587.71,223.55,589.66,222.56,590.18,221.11z M621.8,256.36l-1.11,0.33
		c-11.23,3.39-22.47,6.79-33,9.97c-10.54,3.15-20.38,6.08-28.82,8.6c-16.89,4.97-28.15,8.28-28.15,8.28s11.16-3.63,27.9-9.08
		c8.38-2.69,18.16-5.83,28.63-9.2c10.49-3.33,21.67-6.88,32.86-10.43l4.19-1.33l2.09-0.66c0.34-0.1,0.41-0.16,0.55-0.28
		c0.11-0.11,0.2-0.26,0.25-0.46c0.09-0.38-0.02-0.75-0.26-0.94c-0.16-0.14-0.49-0.33-0.8-0.54l-0.91-0.6
		c-1.22-0.8-2.43-1.59-3.64-2.38c-4.83-3.17-9.59-6.28-14.19-9.3c-5.87-3.83-11.48-7.53-16.67-10.97l-16.46,11.18l-17.22,11.08
		l15.5-7.87c-11.83,24.56-54.89,45.23-66.53,50.45l-23.35,7.23c-0.14,0.04-0.27,0.06-0.4,0.06c-0.53,0-0.91-0.37-1.08-0.71
		c-0.15-0.3-0.25-0.77,0.13-1.28l69.61-92.27c1.14-1.51,2.87-2.37,4.76-2.37c1.17,0,2.3,0.34,3.28,0.99l28.22,18.62
		c-0.13,0.1-0.26,0.19-0.39,0.29c-0.46,0.35-0.93,0.7-1.39,1.05c-1.86,1.4-3.76,2.82-5.65,4.25c-1.89,1.43-3.78,2.86-5.63,4.27
		c-1.86,1.41-3.68,2.8-5.45,4.15c-1.76,1.35-3.47,2.66-5.08,3.89c-1.61,1.24-3.14,2.42-4.54,3.5c-2.8,2.18-5.14,4-6.78,5.28
		c-1.63,1.28-2.56,2.02-2.56,2.02c-0.16,0.13-0.2,0.35-0.09,0.53c0.12,0.19,0.37,0.25,0.55,0.13c0,0,1-0.63,2.76-1.73
		c1.75-1.11,4.25-2.7,7.26-4.6c1.5-0.96,3.12-2,4.83-3.09c1.71-1.1,3.51-2.27,5.38-3.47c1.86-1.21,3.79-2.46,5.74-3.73
		c1.95-1.27,3.94-2.57,5.92-3.86c1.98-1.3,3.96-2.6,5.91-3.88c0.49-0.32,0.97-0.64,1.45-0.96c0.24-0.16,0.48-0.32,0.72-0.47
		l0.18-0.12l0.04-0.03l0.1-0.07l0.09-0.06l0.18-0.12l0.04-0.03l0.06-0.05l0.13-0.1c0.11-0.09,0.21-0.17,0.31-0.26l36.61,24.15
		c0.99,0.65,1.48,1.74,1.31,2.91c-0.17,1.17-0.94,2.08-2.07,2.43L621.8,256.36z M563.06,238.58l12.36-11.84
		c-0.53-4.46-2.39-8.97-5.9-13.46c3.61,2.4,7.92,5.28,12.78,8.51c0.6,0.4,1.22,0.8,1.83,1.21l-7.78,5.63L563.06,238.58z
		 M624.62,159.76c-0.15,0.23-0.29,0.47-0.42,0.73c-0.12,0.28-0.27,0.53-0.25,1.03c0,0.26,0.27,0.65,0.56,0.72
		c0.27,0.1,0.46,0.07,0.63,0.05c0.33-0.05,0.59-0.15,0.85-0.25c0.5-0.21,0.95-0.46,1.39-0.71c1.71-1.04,3.13-2.21,4.31-3.25
		c1.18-1.04,2.08-1.99,2.72-2.64c0.63-0.66,0.97-1.06,0.97-1.06s-0.4,0.33-1.11,0.9c-0.7,0.58-1.73,1.37-2.97,2.3
		c-1.25,0.91-2.73,1.97-4.39,2.89c-0.42,0.22-0.85,0.44-1.28,0.6c-0.2,0.07-0.4,0.13-0.57,0.15c0.03-0.08,0.07-0.19,0.12-0.28
		c0.1-0.2,0.22-0.4,0.36-0.61c0.27-0.41,0.59-0.8,0.91-1.2c1.29-1.58,2.75-3.05,4.11-4.44c1.38-1.37,2.67-2.64,3.78-3.74
		c1.11-1.09,2.04-2.01,2.69-2.64c0.65-0.65,1.01-1.01,1.01-1.01s-1.7,1.21-4.13,3.19c-1.21,0.99-2.6,2.18-4.03,3.51
		c-1.44,1.33-2.92,2.81-4.29,4.44C625.25,158.88,624.92,159.3,624.62,159.76z M624.89,161.25
		C624.89,161.25,624.89,161.25,624.89,161.25C624.88,161.25,624.88,161.25,624.89,161.25z M586.27,196.99
		c-0.08,0.12-0.14,0.2-0.14,0.2s0-0.09,0.02-0.25c0-0.08,0.05-0.17,0.09-0.28c0.03-0.12,0.13-0.21,0.22-0.34
		c0.11-0.09,0.23-0.22,0.38-0.29c0.15-0.09,0.32-0.15,0.5-0.19c0.18-0.02,0.38-0.06,0.57-0.04c0.2,0,0.38,0.06,0.58,0.1
		c0.37,0.13,0.71,0.33,0.97,0.59c0.26,0.25,0.43,0.54,0.54,0.8c0.2,0.55,0.14,0.89,0.15,0.89c0,0-0.05-0.07-0.13-0.21
		c-0.06-0.14-0.21-0.31-0.35-0.5c-0.16-0.18-0.35-0.38-0.59-0.55c-0.23-0.17-0.5-0.31-0.79-0.4c-0.29-0.09-0.58-0.12-0.86-0.11
		c-0.14,0.02-0.27,0.03-0.39,0.07c-0.13,0.02-0.23,0.09-0.34,0.13c-0.08,0.07-0.2,0.11-0.26,0.19
		C586.38,196.87,586.3,196.93,586.27,196.99z M637.12,150.26c0.85-0.59,1.48-0.91,1.48-0.91s-0.38,0.6-1.06,1.38
		c-0.67,0.79-1.62,1.77-2.63,2.69c-1.02,0.91-2.09,1.76-2.95,2.34c-0.85,0.59-1.48,0.91-1.48,0.91s0.38-0.59,1.06-1.38
		c0.67-0.79,1.62-1.77,2.63-2.69C635.19,151.69,636.27,150.84,637.12,150.26z"/>
</g>
</svg>
