<?xml version="1.0" encoding="utf-8"?>
<!-- Generator: Adobe Illustrator 27.9.5, SVG Export Plug-In . SVG Version: 9.03 Build 54986)  -->
<svg version="1.1" id="Layer_2" xmlns="http://www.w3.org/2000/svg" xmlns:xlink="http://www.w3.org/1999/xlink" x="0px" y="0px"
	 viewBox="0 0 480 480" style="enable-background:new 0 0 480 480;" xml:space="preserve">
<style type="text/css">
	.st0{fill:none;stroke:#C8A94C;stroke-width:3;stroke-linecap:square;stroke-miterlimit:10;}
	.st1{fill:#C8A84B;}
</style>
<rect x="128.31" y="266.06" transform="matrix(-8.786843e-14 -1 1 -8.786843e-14 -127.8634 425.9895)" class="st0" width="41.5" height="21.73"/>
<rect x="150.28" y="245.75" transform="matrix(-6.566397e-14 -1 1 -6.566397e-14 -85.5763 427.6399)" class="st0" width="41.5" height="21.73"/>
<rect x="192.8" y="204.17" transform="matrix(6.123234e-17 -1 1 6.123234e-17 -1.4858 428.5776)" class="st0" width="41.5" height="21.73"/>
<rect x="214.62" y="183.99" transform="matrix(-4.345951e-14 -1 1 -4.345951e-14 40.5107 430.2238)" class="st0" width="41.5" height="21.73"/>
<rect x="182.02" y="235.86" class="st0" width="42.39" height="20.91"/>
<rect x="246.23" y="174.28" class="st0" width="42.7" height="21.12"/>
<path class="st0" d="M182.69,180.83c0,19.24-15.59,34.83-34.83,34.83c-3.35,0-6.6-0.47-9.66-1.36v-40.48h43.78
	C182.45,176.09,182.69,178.43,182.69,180.83z"/>
<path class="st0" d="M203.72,180.83c0,30.39-24.63,55.03-55.03,55.03c-3.59,0-7.09-0.34-10.49-1v-61.04h65.08
	C203.57,176.12,203.72,178.46,203.72,180.83z"/>
<rect x="138.2" y="172.42" class="st1" width="243.6" height="2.4"/>
<rect x="16.4" y="293.02" transform="matrix(-1.836970e-16 1 -1 -1.836970e-16 432.4209 156.0208)" class="st1" width="243.6" height="2.4"/>
</svg>
